<?xml version="1.0" encoding="utf-8"?>
<!-- Generator: Adobe Illustrator 21.1.0, SVG Export Plug-In . SVG Version: 6.00 Build 0)  -->
<svg version="1.1" id="WhatsApp_Logo" xmlns="http://www.w3.org/2000/svg" xmlns:xlink="http://www.w3.org/1999/xlink" x="0px"
	 y="0px" viewBox="0 0 230.8 231.9" style="enable-background:new 0 0 230.8 231.9;" xml:space="preserve">
<style type="text/css">
	.st0{fill:#FFFFFF;}
	.st1{fill:url(#shape_3_1_);}
	.st2{fill:url(#SVGID_1_);}
	.st3{fill-rule:evenodd;clip-rule:evenodd;fill:#FFFFFF;}
</style>
<g id="shape_4">
	
		<image style="overflow:visible;opacity:6.000000e-02;" width="206" height="207" xlink:href="E2757D9D0E55C3A6.png"  transform="matrix(1 0 0 1 13.0934 14.6133)">
	</image>
	<g>
		
			<image style="overflow:visible;opacity:0.15;" width="181" height="181" xlink:href="E2757D9D0E55C3AA.png"  transform="matrix(1 0 0 1 25.7142 26.2341)">
		</image>
		<g>
			<path class="st0" d="M29.7,201.3l12.1-44.4c-7.5-13-11.4-27.7-11.4-42.8c0-47.2,38.4-85.6,85.6-85.6c22.9,0,44.4,8.9,60.6,25.1
				c16.2,16.2,25.1,37.7,25.1,60.6c0,47.2-38.4,85.6-85.6,85.6c0,0,0,0,0,0h0c-14.3,0-28.4-3.6-40.9-10.4L29.7,201.3z M77.2,173.9
				l2.6,1.5c10.9,6.5,23.4,9.9,36.2,9.9h0c39.2,0,71.1-31.9,71.2-71.1c0-19-7.4-36.9-20.8-50.3C153,50.4,135.1,43,116.1,43
				c-39.3,0-71.2,31.9-71.2,71.1c0,13.4,3.8,26.5,10.9,37.9l1.7,2.7L50.3,181L77.2,173.9z"/>
		</g>
	</g>
</g>
<linearGradient id="shape_3_1_" gradientUnits="userSpaceOnUse" x1="115.7264" y1="198.2969" x2="115.7264" y2="31.5481">
	<stop  offset="0" style="stop-color:#20B038"/>
	<stop  offset="1" style="stop-color:#60D66A"/>
</linearGradient>
<path id="shape_3" class="st1" d="M32.7,198.3l11.7-42.8c-7.2-12.5-11-26.7-11-41.3c0-45.6,37.1-82.6,82.7-82.6
	c22.1,0,42.9,8.6,58.5,24.2c15.6,15.6,24.2,36.4,24.2,58.5c0,45.6-37.1,82.6-82.7,82.6c0,0,0,0,0,0h0c-13.8,0-27.4-3.5-39.5-10.1
	L32.7,198.3z"/>
<g id="shape_2">
	
		<image style="overflow:visible;opacity:4.000000e-02;" width="183" height="183" xlink:href="E2757D9D0E55C3AD.png"  transform="matrix(1 0 0 1 24.4827 24.0026)">
	</image>
	<g>
		<g>
			<linearGradient id="SVGID_1_" gradientUnits="userSpaceOnUse" x1="115.727" y1="201.2856" x2="115.727" y2="28.5572">
				<stop  offset="0" style="stop-color:#F9F9F9"/>
				<stop  offset="1" style="stop-color:#FFFFFF"/>
			</linearGradient>
			<path class="st2" d="M29.7,201.3l12.1-44.4c-7.5-13-11.4-27.7-11.4-42.8c0-47.2,38.4-85.6,85.6-85.6c22.9,0,44.4,8.9,60.6,25.1
				c16.2,16.2,25.1,37.7,25.1,60.6c0,47.2-38.4,85.6-85.6,85.6c0,0,0,0,0,0h0c-14.3,0-28.4-3.6-40.9-10.4L29.7,201.3z M77.2,173.9
				l2.6,1.5c10.9,6.5,23.4,9.9,36.2,9.9h0c39.2,0,71.1-31.9,71.2-71.1c0-19-7.4-36.9-20.8-50.3C153,50.4,135.1,43,116.1,43
				c-39.3,0-71.2,31.9-71.2,71.1c0,13.4,3.8,26.5,10.9,37.9l1.7,2.7L50.3,181L77.2,173.9z"/>
		</g>
	</g>
</g>
<g id="shape_1">
	
		<image style="overflow:visible;opacity:6.000000e-02;" width="98" height="92" xlink:href="E2757D9D0E55C3AE.png"  transform="matrix(1 0 0 1 67.4827 70.0026)">
	</image>
	<g>
		<path class="st3" d="M94.7,78.4c-1.6-3.6-3.3-3.6-4.8-3.7c-1.2-0.1-2.7-0.1-4.1-0.1c-1.4,0-3.7,0.5-5.7,2.7
			c-2,2.1-7.5,7.3-7.5,17.8c0,10.5,7.7,20.7,8.7,22.1c1.1,1.4,14.8,23.7,36.5,32.3c18.1,7.1,21.7,5.7,25.7,5.4
			c3.9-0.4,12.7-5.2,14.4-10.2c1.8-5,1.8-9.3,1.2-10.2c-0.5-0.9-2-1.4-4.1-2.5c-2.1-1.1-12.7-6.2-14.6-7c-2-0.7-3.4-1.1-4.8,1.1
			c-1.4,2.1-5.5,7-6.8,8.4c-1.2,1.4-2.5,1.6-4.6,0.5c-2.1-1.1-9-3.3-17.2-10.6c-6.4-5.7-10.7-12.7-11.9-14.8
			c-1.2-2.1-0.1-3.3,0.9-4.4c1-1,2.1-2.5,3.2-3.7c1.1-1.2,1.4-2.1,2.1-3.6c0.7-1.4,0.4-2.7-0.2-3.7S96.6,82.6,94.7,78.4z"/>
	</g>
</g>
</svg>
